<?xml version="1.0" encoding="iso-8859-1"?>
<!-- Generator: Adobe Illustrator 19.0.0, SVG Export Plug-In . SVG Version: 6.00 Build 0)  -->
<svg version="1.1" id="Layer_1" xmlns="http://www.w3.org/2000/svg" xmlns:xlink="http://www.w3.org/1999/xlink" x="0px" y="0px"
	 viewBox="0 0 511.999 511.999" style="enable-background:new 0 0 511.999 511.999;" xml:space="preserve">
<path style="fill:#51B3DA;" d="M159.308,490.576l8.725-103.568h-44.257c-47.166,0-85.539-38.373-85.539-85.539V85.539
	C38.237,38.373,76.61,0,123.776,0h264.447c47.166,0,85.539,38.373,85.539,85.539v215.93c0,47.166-38.373,85.539-85.539,85.539
	h-41.918L191.103,507.81C177.626,518.298,157.855,507.809,159.308,490.576z"/>
<path style="fill:#238CC5;" d="M388.222,0H256v457.297l90.304-70.289h41.918c47.166,0,85.539-38.373,85.539-85.539V85.539
	C473.762,38.373,435.39,0,388.222,0z"/>
<path style="fill:#F1F2F2;" d="M271.563,134.908c0-8.162,5.439-10.053,9.259-10.053h18.212c2.907,0,5.264-2.357,5.264-5.264V94.234
	c0-2.899-2.344-5.252-5.243-5.264l-27.091-0.109c-35.887,0-44.042,26.741-44.042,43.868v13.649c0,2.907-2.357,5.264-5.264,5.264
	h-10.225c-2.907,0-5.264,2.357-5.264,5.264v31.331c0,2.907,2.357,5.264,5.264,5.264h10.395c2.907,0,5.264,2.357,5.264,5.264v94.118
	c0,2.907,2.357,5.264,5.264,5.264h31.331c2.907,0,5.264-2.357,5.264-5.264v-94.118c0-2.907,2.357-5.264,5.264-5.264h20.995
	c2.721,0,4.995-2.075,5.242-4.786l2.856-31.331c0.282-3.083-2.146-5.742-5.243-5.742h-22.238c-2.907,0-5.264-2.357-5.264-5.264
	V134.908L271.563,134.908z"/>
<path style="fill:#E6E7E8;" d="M299.065,151.642h-22.238c-2.907,0-5.264-2.357-5.264-5.264v-11.47
	c0-8.162,5.439-10.053,9.259-10.053h18.212c2.907,0,5.264-2.357,5.264-5.264V94.234c0-2.899-2.344-5.252-5.243-5.264l-27.091-0.109
	c-6.096,0-11.374,0.787-15.964,2.152v207.135h8.687c2.907,0,5.264-2.357,5.264-5.264v-94.118c0-2.907,2.357-5.264,5.264-5.264
	h20.995c2.721,0,4.995-2.075,5.242-4.786l2.856-31.332C304.589,154.301,302.161,151.642,299.065,151.642z"/>
<g>
</g>
<g>
</g>
<g>
</g>
<g>
</g>
<g>
</g>
<g>
</g>
<g>
</g>
<g>
</g>
<g>
</g>
<g>
</g>
<g>
</g>
<g>
</g>
<g>
</g>
<g>
</g>
<g>
</g>
</svg>
